<?xml version="1.0" encoding="utf-8"?>
<!-- Generator: Adobe Illustrator 23.0.2, SVG Export Plug-In . SVG Version: 6.00 Build 0)  -->
<!DOCTYPE svg PUBLIC "-//W3C//DTD SVG 1.1//EN" "http://www.w3.org/Graphics/SVG/1.1/DTD/svg11.dtd">
<svg version="1.1" id="Camada_1" xmlns="http://www.w3.org/2000/svg" xmlns:xlink="http://www.w3.org/1999/xlink" x="0px" y="0px"
	 viewBox="0 0 487 144" style="enable-background:new 0 0 487 144;" xml:space="preserve">
<style type="text/css">
	.st0{fill:#FFFFFF;}
</style>
<g>
	<path class="st0" d="M141.8,57.1L135.5,69c-6.9-3.7-13.3-5.7-18-5.7c-3.3,0-5.6,1.3-5.6,3.9c0,7.8,30.1,4,30,24
		c0,11.8-10.3,18.2-24.1,18.2c-9.5,0-18.8-2.8-25.7-8.1L98,89.7c6.5,4.6,13.9,7.1,20.2,7.1c3.6,0,6.3-1.3,6.3-3.9
		c0-8.4-29.6-4-29.5-24.1c0-11.8,10-18.1,23.2-18.1C126.5,50.7,134.8,53,141.8,57.1z"/>
	<path class="st0" d="M205.7,108.6h-18.3v-9.4c-3.9,6.8-10.3,10.2-18.6,10.2c-12.4,0-20.5-8.5-20.5-21.8v-36h18.3v30.8
		c0,6.8,3.7,10.9,9.5,10.9c7-0.1,11.1-5.8,11.1-13.6V51.5h18.3V108.6z"/>
	<path class="st0" d="M315.1,72.6v36h-18.2v-31c0-6.8-3.8-10.9-9.9-10.9c-6.9,0.2-11.1,5.8-11.1,13.6v28.3h-18.3v-31
		c0-6.8-3.7-10.9-9.8-10.9c-7,0.2-11.3,5.8-11.3,13.6v28.3h-18.2V51.5h18.2v9.4c3.9-6.8,10.5-10.2,18.9-10.3
		c9.3,0,16.2,4.9,19.1,12.9c3.7-8.5,10.7-12.8,20.1-12.9C307,50.7,315.1,59.2,315.1,72.6z"/>
	<path class="st0" d="M422.9,72.6v36h-18.2v-31c0-6.8-3.8-10.9-9.9-10.9c-6.9,0.2-11.1,5.8-11.1,13.6v28.3h-18.3v-31
		c0-6.8-3.7-10.9-9.8-10.9c-7,0.2-11.3,5.8-11.3,13.6v28.3H326V51.5h18.2v9.4c3.9-6.8,10.5-10.2,18.9-10.3c9.3,0,16.2,4.9,19.1,12.9
		c3.7-8.5,10.7-12.8,20.1-12.9C414.9,50.7,422.9,59.2,422.9,72.6z"/>
	<path class="st0" d="M484.4,71.3v37.3h-17.9v-6.6c-3.7,4.9-9.8,7.4-17.5,7.4c-12.2,0-19.6-7.4-19.6-17.9c0-10.8,7.7-17.2,21.9-17.3
		h15.1v-0.8c0-5.6-3.7-9-11.1-9c-4.8,0-11,1.7-17.1,4.8L433,57.1c8.9-4.1,17-6.5,26.5-6.5C475.2,50.7,484.3,58.4,484.4,71.3z
		 M466.4,89.2v-5.1h-11.6c-5.5,0-8.3,1.9-8.3,6.1c0,4.1,3,6.8,8.1,6.8C460.3,97.1,465.2,93.9,466.4,89.2z"/>
</g>
<g>
	<path class="st0" d="M2.7,112.6v6.5c0,1.3,1.1,2.4,2.4,2.4s2.4-1.1,2.4-2.4v-6.5c-0.8,0.2-1.6,0.3-2.4,0.3S3.5,112.7,2.7,112.6z"/>
	<ellipse class="st0" cx="5.1" cy="102.9" rx="5.1" ry="5.1"/>
	<path class="st0" d="M41,80.4c-1.2,0-2.4-0.2-3.6-0.6l-25.8-9.1v18.7c0,1.2,0.7,2.3,1.8,2.7c17.5,7.8,37.6,7.8,55.1,0
		c1.1-0.5,1.8-1.6,1.8-2.7V70.7l-25.8,9.1C43.5,80.2,42.3,80.4,41,80.4L41,80.4z"/>
	<path class="st0" d="M80,56.4L43,43.3c-1.3-0.4-2.6-0.4-3.9,0l-37,13.1c-2.8,1-2.8,4.9,0,5.8l0.6,0.2v30.9C3.5,93.1,4.3,93,5.1,93
		s1.6,0.1,2.4,0.3V64.1l31.6,11.2c1.3,0.4,2.6,0.4,3.9,0l37-13.1C82.8,61.2,82.8,57.3,80,56.4z"/>
</g>
</svg>
