<svg width="201" height="33" viewBox="0 0 201 33" fill="none" xmlns="http://www.w3.org/2000/svg">
<path d="M58.8394 5.85075L56.2252 10.7886C53.3621 9.25331 50.7064 8.42342 48.7562 8.42342C47.3869 8.42342 46.4325 8.96285 46.4325 10.0417C46.4325 13.2783 58.9224 11.7015 58.8809 20.0004C58.8809 24.8968 54.6069 27.5524 48.8807 27.5524C44.9387 27.5524 41.0797 26.3906 38.2166 24.1914L40.6647 19.378C43.3619 21.2868 46.4325 22.3241 49.0467 22.3241C50.5405 22.3241 51.6608 21.7847 51.6608 20.7058C51.6608 17.2203 39.3784 19.046 39.4199 10.7056C39.4199 5.80926 43.5694 3.1951 49.0467 3.1951C52.4907 3.1951 55.9348 4.14947 58.8394 5.85075Z" fill="white"/>
<path d="M85.3545 27.2205H77.7609V23.32C76.1427 26.1416 73.487 27.5524 70.0429 27.5524C64.8976 27.5524 61.5365 24.0254 61.5365 18.5066V3.56853H69.1301V16.3489C69.1301 19.1705 70.6654 20.8718 73.0721 20.8718C75.9767 20.8303 77.678 18.4651 77.678 15.2285V3.52704H85.2715V27.2205H85.3545Z" fill="white"/>
<path d="M130.75 12.2824V27.2205H123.198V14.3571C123.198 11.5355 121.621 9.83423 119.09 9.83423C116.226 9.91722 114.484 12.2409 114.484 15.4775V27.2205H106.89V14.3571C106.89 11.5355 105.355 9.83423 102.824 9.83423C99.9191 9.91722 98.1348 12.2409 98.1348 15.4775V27.2205H90.5828V3.52705H98.1348V7.42754C99.7531 4.60591 102.492 3.19509 105.977 3.15359C109.836 3.15359 112.699 5.18683 113.903 8.5064C115.438 4.97936 118.343 3.19509 122.243 3.15359C127.389 3.19509 130.75 6.72213 130.75 12.2824Z" fill="white"/>
<path d="M175.481 12.2824V27.2205H167.929V14.3571C167.929 11.5355 166.352 9.83423 163.821 9.83423C160.958 9.91722 159.215 12.2409 159.215 15.4775V27.2205H151.621V14.3571C151.621 11.5355 150.086 9.83423 147.555 9.83423C144.65 9.91722 142.866 12.2409 142.866 15.4775V27.2205H135.272V3.52705H142.825V7.42754C144.443 4.60591 147.181 3.19509 150.667 3.15359C154.526 3.15359 157.389 5.18683 158.592 8.5064C160.128 4.97936 163.032 3.19509 166.933 3.15359C172.161 3.19509 175.481 6.72213 175.481 12.2824Z" fill="white"/>
<path d="M201 11.743V27.2205H193.572V24.4818C192.037 26.5151 189.506 27.5524 186.311 27.5524C181.249 27.5524 178.178 24.4818 178.178 20.1249C178.178 15.6435 181.373 12.9878 187.265 12.9463H193.531V12.6144C193.531 10.2907 191.996 8.87986 188.925 8.87986C186.933 8.87986 184.361 9.58526 181.829 10.8716L179.672 5.85075C183.365 4.14947 186.726 3.15359 190.668 3.15359C197.182 3.19509 200.958 6.39018 201 11.743ZM193.531 19.1705V17.0543H188.718C186.435 17.0543 185.274 17.8427 185.274 19.5855C185.274 21.2867 186.518 22.4071 188.635 22.4071C191 22.4486 193.033 21.1208 193.531 19.1705Z" fill="white"/>
<path d="M1.12035 28.8803V31.5774C1.12035 32.1168 1.57679 32.5733 2.11622 32.5733C2.65566 32.5733 3.1121 32.1168 3.1121 31.5774V28.8803C2.78014 28.9633 2.44818 29.0047 2.11622 29.0047C1.78427 29.0047 1.45231 28.9218 1.12035 28.8803Z" fill="white"/>
<path d="M2.11623 26.9715C3.28499 26.9715 4.23245 26.024 4.23245 24.8553C4.23245 23.6865 3.28499 22.7391 2.11623 22.7391C0.947467 22.7391 0 23.6865 0 24.8553C0 26.024 0.947467 26.9715 2.11623 26.9715Z" fill="white"/>
<path d="M17.0128 15.519C16.5149 15.519 16.0169 15.436 15.519 15.27L4.81338 11.494V19.2535C4.81338 19.7515 5.10384 20.2079 5.56028 20.3739C12.8218 23.6105 21.1623 23.6105 28.4238 20.3739C28.8803 20.1664 29.1707 19.71 29.1707 19.2535V11.494L18.4651 15.27C18.0502 15.436 17.5522 15.519 17.0128 15.519Z" fill="white"/>
<path d="M33.1957 5.56028L17.8427 0.124484C17.3033 -0.0414946 16.7638 -0.0414946 16.2244 0.124484L0.871387 5.56028C-0.290462 5.97523 -0.290462 7.59352 0.871387 7.96697L1.12036 8.04996V20.8718C1.45231 20.7888 1.78427 20.7473 2.11623 20.7473C2.44818 20.7473 2.78014 20.7888 3.1121 20.8718V8.75537L16.2244 13.4028C16.7638 13.5687 17.3033 13.5687 17.8427 13.4028L33.1957 7.96697C34.3576 7.55202 34.3576 5.93373 33.1957 5.56028Z" fill="white"/>
</svg>
